<?xml version="1.0" encoding="utf-8"?>
<!-- Uploaded to: SVG Repo, www.svgrepo.com, Generator: SVG Repo Mixer Tools -->
<svg fill="#000000" version="1.1" id="Layer_1" xmlns="http://www.w3.org/2000/svg" xmlns:xlink="http://www.w3.org/1999/xlink" 
	 width="800px" height="800px" viewBox="0 0 256 256" xml:space="preserve">
<g id="Layer_2">
</g>
<path d="M206.7,167.5h-31.5V254h-54.9v-51.2H88.6V254H33.5v-86.4H2l31.5-31.8v-55h23.6v31.1l47.2-47.7L206.7,167.5z M254,52.2
	c0,27.7-22.5,50.2-50.2,50.2c-27.7,0-50.2-22.5-50.2-50.2S176.1,2,203.8,2C231.5,2,254,24.5,254,52.2z M222.4,64.2
	c0-11.7-11.2-15-16-16.6c-9.1-2.9-9.9-6.5-9.8-8.4c0.3-4.6,4.8-5.7,9-4.7c3.3,0.8,6.7,3,8.6,4.6l6-7.8c-2.9-2.3-6.7-5.2-12.2-6.4
	v-7.6h-8.7v7.3c-8.4,0.7-14.1,6.7-14.1,14.8c0,8,5.1,11.7,10.3,14.5c4.3,2.3,16.3,4.7,15.6,10.8c-0.4,3.3-3.5,5.7-8.7,5
	c-4.5-0.6-9.3-4.9-9.3-4.9l-6.6,7.3c4,3.6,8.2,5.9,12.8,6.9v7.2h8.7v-6.8C216.3,78.5,222.4,72.1,222.4,64.2z"/>
<g id="Layer_3">
</g>
</svg>